<svg xmlns="http://www.w3.org/2000/svg" viewBox="0 0 400 200" width="400" height="200">
  <defs>
    <linearGradient id="suvGrad" x1="0%" y1="0%" x2="0%" y2="100%">
      <stop offset="0%" style="stop-color:#2c5282;stop-opacity:1" />
      <stop offset="100%" style="stop-color:#1a365d;stop-opacity:1" />
    </linearGradient>
  </defs>
  <!-- Shadow -->
  <ellipse cx="200" cy="180" rx="180" ry="15" fill="#000" opacity="0.2"/>
  <!-- Car body -->
  <path d="M70 100 L95 75 L140 65 L260 65 L305 75 L330 100 L345 125 L345 145 L335 150 L315 150 L305 140 L95 140 L85 150 L65 150 L55 145 L55 125 Z" 
        fill="url(#suvGrad)" stroke="#1a202c" stroke-width="2"/>
  <!-- Windows -->
  <path d="M115 75 L145 80 L255 80 L285 75 L275 70 L155 70 Z" fill="#87ceeb" opacity="0.6" stroke="#1a202c" stroke-width="1"/>
  <!-- Wheels -->
  <circle cx="115" cy="150" r="23" fill="#1a202c" stroke="#4a5568" stroke-width="3"/>
  <circle cx="115" cy="150" r="14" fill="#4a5568"/>
  <circle cx="285" cy="150" r="23" fill="#1a202c" stroke="#4a5568" stroke-width="3"/>
  <circle cx="285" cy="150" r="14" fill="#4a5568"/>
  <!-- Details -->
  <rect x="315" y="115" width="18" height="10" fill="#ff6b6b" rx="2"/>
  <rect x="67" y="115" width="18" height="10" fill="#ffd93d" rx="2"/>
</svg>
